HIERARCHY
ROOT Hips
{
	OFFSET -0.179506 -22.333345 2.821913
	CHANNELS 6 Xposition Yposition Zposition Zrotation Yrotation Xrotation 
	JOINT LeftUpLeg
	{
		OFFSET 6.951974 -9.140623 -0.681533
		CHANNELS 3 Zrotation Yrotation Xrotation
		JOINT LeftLeg
		{
			OFFSET 3.427654 -37.519855 -0.449580
			CHANNELS 3 Zrotation Yrotation Xrotation
			JOINT LeftFoot
			{
				OFFSET -1.359570 -39.796059 -4.369333
				CHANNELS 3 Zrotation Yrotation Xrotation
				JOINT LeftToe
				{
					OFFSET 2.635814 -5.579078 11.928840
					CHANNELS 3 Zrotation Yrotation Xrotation
					End Site
					{
						OFFSET 0.000000 0.000000 0.000000
					}
				}
			}
		}
	}
	JOINT RightUpLeg
	{
		OFFSET -6.767048 -9.052170 -0.431982
		CHANNELS 3 Zrotation Yrotation Xrotation
		JOINT RightLeg
		{
			OFFSET -3.829005 -38.256897 -0.885003
			CHANNELS 3 Zrotation Yrotation Xrotation
			JOINT RightFoot
			{
				OFFSET 1.577377 -39.841461 -4.231180
				CHANNELS 3 Zrotation Yrotation Xrotation
				JOINT RightToe
				{
					OFFSET -2.537174 -4.814398 12.334795
					CHANNELS 3 Zrotation Yrotation Xrotation
					End Site
					{
						OFFSET 0.000000 0.000000 0.000000
					}
				}
			}
		}
	}
	JOINT Spine
	{
		OFFSET -0.253288 10.896323 -2.669631
		CHANNELS 3 Zrotation Yrotation Xrotation
		JOINT Spine1
		{
			OFFSET 0.548704 13.518043 0.109247
			CHANNELS 3 Zrotation Yrotation Xrotation
			JOINT Spine2
			{
				OFFSET 0.145701 5.292222 2.542457
				CHANNELS 3 Zrotation Yrotation Xrotation
				JOINT Neck
				{
					OFFSET -0.277840 21.387037 -4.285703
					CHANNELS 3 Zrotation Yrotation Xrotation
					JOINT Head
					{
						OFFSET 0.515184 6.496960 5.134897
						CHANNELS 3 Zrotation Yrotation Xrotation
						End Site
						{
							OFFSET 0.000000 0.000000 0.000000
						}
					}
				}
				JOINT LeftShoulder
				{
					OFFSET 7.884473 12.174932 -3.408961
					CHANNELS 3 Zrotation Yrotation Xrotation
					JOINT LeftArm
					{
						OFFSET 9.097692 3.046888 -0.886815
						CHANNELS 3 Zrotation Yrotation Xrotation
						JOINT LeftForeArm
						{
							OFFSET 25.961220 -1.277207 -2.745643
							CHANNELS 3 Zrotation Yrotation Xrotation
							JOINT LeftHand
							{
								OFFSET 24.923361 0.898606 -0.117091
								CHANNELS 3 Zrotation Yrotation Xrotation
								End Site
								{
									OFFSET 0.000000 0.000000 0.000000
								}
							}
						}
					}
				}
				JOINT RightShoulder
				{
					OFFSET -8.175920 11.883285 -3.861528
					CHANNELS 3 Zrotation Yrotation Xrotation
					JOINT RightArm
					{
						OFFSET -9.601238 3.255117 -0.914307
						CHANNELS 3 Zrotation Yrotation Xrotation
						JOINT RightForeArm
						{
							OFFSET -25.374195 -1.332924 -2.140099
							CHANNELS 3 Zrotation Yrotation Xrotation
							JOINT RightHand
							{
								OFFSET -25.529810 0.777228 -0.555919
								CHANNELS 3 Zrotation Yrotation Xrotation
								End Site
								{
									OFFSET 0.000000 0.000000 0.000000
								}
							}
						}
					}
				}
			}
		}
	}
}
MOTION
Frames: 12
Frame Time: 0.033333
19.459948 58.154724 93.119102 171.838290 2.304507 86.607706 13.083862 8.783622 -16.795690 -0.877923 12.226910 21.237722 -4.984711 -1.682874 -6.385067 nan nan nan -7.577304 -4.444739 1.214817 -1.537048 -2.987421 20.732560 -1.137456 2.289720 -26.464130 nan nan nan 1.608314 3.557443 10.921972 2.133529 -2.669644 8.271357 1.989845 0.720043 -5.094199 -1.013651 16.846993 10.870876 -3.142992 17.142146 19.426664 -14.975200 -14.364618 0.700801 -51.180498 -21.765323 -2.335284 88.444821 -55.862621 -62.167197 15.277107 -28.258209 -20.821795 10.880619 21.404835 2.681780 66.816527 25.805080 23.804952 -150.242548 85.318106 -126.290433 -1.143586 26.282569 -34.353976 
19.332314 58.199154 93.166199 171.608112 2.309677 86.537922 13.151253 8.575669 -16.467492 -1.093648 12.290285 20.960836 -5.060431 -1.291184 -6.439153 nan nan nan -7.647386 -4.212473 1.067597 -1.389892 -2.858462 21.178894 -0.995283 2.163887 -26.900784 nan nan nan 1.661754 3.508269 11.097980 2.052354 -2.512413 7.981807 1.975503 0.747647 -4.887305 -0.942538 16.808768 10.718901 -3.190459 17.154075 19.450467 -14.903134 -14.384262 0.714154 -51.203479 -21.856746 -2.271906 88.360980 -55.827439 -61.910645 15.584696 -28.171460 -20.845637 10.764620 21.443624 2.628520 67.055820 25.880042 23.859274 -148.627480 85.311128 -124.659189 -1.447073 26.266450 -34.313519 
19.207157 58.242405 93.186363 171.339001 2.254364 86.516210 13.196658 8.160363 -16.075105 -1.296000 12.592998 20.474685 -5.117161 -0.981572 -6.336646 nan nan nan -7.773329 -3.868384 0.808123 -1.278700 -2.881622 21.661786 -0.794745 2.184486 -27.378289 nan nan nan 1.642245 3.533937 11.156526 1.990457 -2.327445 7.952621 1.986029 0.736292 -4.929387 -0.829564 16.820458 10.818942 -3.303120 17.338772 19.272388 -14.890707 -14.441407 0.862433 -51.246489 -21.999385 -2.279951 88.431223 -55.675835 -61.918734 15.581191 -28.381331 -20.951042 10.628246 21.522202 2.673591 67.272574 25.985604 23.990264 -146.709484 85.221272 -122.764390 -1.775342 26.308240 -34.567467 
19.103611 58.291115 93.209030 171.146951 2.205862 86.462374 13.191330 7.936585 -15.773591 -1.366311 12.830436 20.187836 -5.145403 -0.897182 -6.277859 nan nan nan -7.845746 -3.709481 0.630855 -1.313519 -2.865579 22.122687 -0.842554 2.379592 -27.778572 nan nan nan 1.561933 3.563148 11.157298 2.011872 -2.272069 8.000434 1.997191 0.806998 -4.937722 -0.698951 16.957365 10.877955 -3.407667 17.343580 19.193446 -14.798984 -14.569340 0.968381 -51.424631 -22.102400 -2.295275 88.487482 -55.447509 -61.869780 15.479969 -28.642598 -21.037888 10.619844 21.615306 2.733765 67.394558 26.106289 23.956646 -144.089387 85.022290 -119.820748 -1.478770 26.565586 -34.257000 
19.013266 58.326408 93.238167 171.038724 2.140736 86.449939 13.102389 7.873517 -15.634347 -1.308499 13.012201 20.073644 -5.077891 -0.982740 -6.230011 nan nan nan -7.910937 -3.658769 0.442940 -1.338017 -2.763939 22.596581 -0.955101 2.476164 -28.124054 nan nan nan 1.526325 3.487949 11.209113 1.967057 -2.269645 7.830812 1.948706 0.918189 -4.826374 -0.639298 17.051280 10.937729 -3.447317 17.301397 19.028801 -14.652420 -14.579781 1.003900 -51.591590 -22.164498 -2.262952 88.535594 -55.339529 -61.768402 15.540674 -28.561699 -21.374371 10.652376 21.677840 2.818249 67.555077 26.233501 24.096436 -143.541115 84.950480 -119.174220 -1.863680 26.292107 -34.551072 
18.913549 58.340233 93.265656 171.017667 2.063269 86.442419 12.963368 7.676616 -15.556013 -1.189303 13.203609 19.909761 -4.941375 -0.978440 -6.102559 nan nan nan -8.004613 -3.609895 0.247257 -1.311753 -2.710424 23.123729 -0.990545 2.521379 -28.393126 nan nan nan 1.418679 3.731098 11.203827 2.071340 -2.076327 7.874541 2.079254 0.596195 -4.850102 -0.610974 16.961300 10.900311 -3.638833 17.280988 18.885380 -14.678756 -14.625806 1.018525 -51.874693 -22.362592 -2.099354 88.701596 -55.255041 -61.897619 15.476433 -28.389281 -21.541943 10.500349 21.560561 2.670732 67.681830 26.309182 24.278154 -143.198617 84.759840 -118.727327 -1.559452 25.615179 -33.987329 
18.827038 58.359150 93.307182 170.932771 1.950862 86.456837 12.779227 7.580934 -15.471364 -1.183427 13.351392 19.686265 -4.975310 -0.776755 -5.962172 nan nan nan -8.087203 -3.515909 0.003864 -1.357659 -2.631034 23.710399 -1.020956 2.660135 -28.534980 nan nan nan 1.462010 3.548566 11.194064 1.949508 -2.120955 7.636000 1.959767 0.731848 -4.663901 -0.674861 17.050702 10.987568 -3.604808 17.286059 18.722091 -14.699185 -14.602403 0.895663 -51.937647 -22.198067 -2.048426 88.925782 -55.248046 -62.269435 15.211815 -28.388838 -21.480115 10.596095 21.734655 2.779231 67.789204 26.462818 24.211214 -141.209336 84.668252 -116.453552 -0.791033 25.383792 -32.567745 
18.779524 58.376068 93.364532 170.856592 1.908542 86.370987 12.663439 7.688526 -15.333141 -1.177176 13.468253 19.666461 -5.247461 -0.660592 -6.058908 nan nan nan -8.035573 -3.499957 -0.117084 -1.565089 -2.588052 24.352957 -1.043807 2.929637 -28.594616 nan nan nan 1.571820 3.293172 11.328167 1.779726 -2.184964 7.295808 1.837001 0.948052 -4.443628 -0.753117 17.181929 11.108751 -3.509316 17.213881 18.541970 -14.628953 -14.538486 0.772931 -52.067323 -21.992605 -1.973551 89.091977 -55.288999 -62.541051 15.318622 -28.498161 -21.700176 10.755035 21.920895 2.885888 67.943137 26.544356 24.178936 -141.130997 84.818691 -116.570952 -1.358412 25.496296 -32.526124 
18.754364 58.376884 93.418701 170.878413 1.885848 86.277825 12.578508 7.656038 -15.198618 -1.119321 13.268779 19.587662 -5.333715 -0.755480 -6.044064 nan nan nan -7.924043 -3.430823 -0.133445 -1.672380 -2.603144 24.677699 -1.037146 2.812884 -28.357456 nan nan nan 1.576209 3.225768 11.423551 1.742661 -2.185924 7.281223 1.843254 0.984884 -4.535384 -0.837918 17.138765 11.161819 -3.457913 17.225654 18.508246 -14.610898 -14.595419 0.820242 -52.360808 -21.945207 -1.866392 89.362831 -55.127778 -62.816706 15.377950 -28.591666 -21.985209 10.802189 21.997343 2.791953 68.162099 26.451552 24.300285 -140.679832 84.849507 -116.446306 -1.891457 25.660496 -32.754722 
18.726370 58.373734 93.457733 170.961360 1.840011 86.123641 12.473989 7.540063 -15.012949 -1.043023 13.214223 19.507907 -5.287656 -0.806003 -6.012858 nan nan nan -7.858531 -3.370033 -0.057040 -1.803552 -2.599857 25.039838 -1.027063 2.824958 -27.861880 nan nan nan 1.523943 3.291565 11.578287 1.778756 -2.134959 7.411877 1.904148 0.879463 -4.778376 -0.841122 17.077471 11.114398 -3.459617 17.250556 18.663094 -14.612430 -14.687763 0.864910 -52.765715 -22.042053 -1.793657 89.686255 -54.939156 -63.012723 15.013056 -28.680576 -22.005961 10.678087 21.955233 2.585059 68.350959 26.344032 24.331917 -140.083520 84.671536 -115.663083 -1.190204 25.807311 -32.411319 
18.705374 58.369232 93.478394 171.019496 1.789223 85.924532 12.403335 7.439861 -14.758156 -0.978550 13.284633 19.393950 -5.308448 -0.876566 -5.937417 nan nan nan -7.810339 -3.291205 0.100642 -1.918548 -2.575927 25.330491 -0.960010 3.069948 -27.020013 nan nan nan 1.450357 3.501231 11.734106 1.861141 -2.004030 7.656928 2.020320 0.621724 -5.089520 -0.748073 17.081816 11.034513 -3.457424 17.230068 18.926749 -14.581811 -14.788967 0.925884 -53.231216 -22.193958 -1.720718 89.926249 -54.779333 -62.973913 14.713853 -28.874283 -21.803195 10.392440 21.832839 2.358679 68.506897 26.296655 24.404413 -140.272427 84.508148 -115.460182 -0.911121 25.810595 -32.623203 
18.712389 58.364738 93.478882 171.062448 1.711834 85.867170 12.333468 7.361374 -14.636043 -0.969915 13.317556 19.274893 -5.221430 -0.977856 -5.855585 nan nan nan -7.743320 -3.218786 0.116979 -2.020177 -2.505444 25.592965 -0.831750 3.321932 -25.788986 nan nan nan 1.360917 3.533414 11.721645 1.886139 -1.997896 7.649776 2.057149 0.570789 -5.148155 -0.787620 17.046673 11.125687 -3.412933 17.280441 18.928607 -14.532594 -14.826630 1.059488 -53.609605 -22.270092 -1.759315 90.192179 -54.685757 -62.895915 14.466452 -29.064742 -21.452004 10.247994 21.855161 2.406898 68.700168 26.395202 24.451606 -139.567067 84.340737 -114.319420 -0.955973 25.824355 -32.567968 
